<svg xmlns="http://www.w3.org/2000/svg" xmlns:xlink="http://www.w3.org/1999/xlink" x="0px" y="0px" viewBox="0 0 172 46" style="enable-background:new 0 0 172 46;" xml:space="preserve"><style type="text/css"> .st0{enable-background:new ;} .st1{fill-rule:evenodd;clip-rule:evenodd;fill:#FFFFFF;} .st2{fill-rule:evenodd;clip-rule:evenodd;fill:#FF9D0F;} .st3{fill:#1B75BB;} .st4{fill:#8BC53F;} .st5{fill:#37B34A;} .st6{fill:#F05A28;} .st7{fill:#F6921E;} .st8{fill:#25A9E0;}</style><g id="Gainlove_1_" class="st0"> <g id="Gainlove"> <g> <path class="st1" d="M64.5,16.9v1l0.7,0.1c0.7,0.1,1.2,0.3,1.4,0.7c0.2,0.4,0.4,1.2,0.4,2.3c0,1.4-0.2,2.4-0.5,3 c-0.4,0.6-1.1,0.9-2.1,0.9c-1.9,0-3.3-0.9-4.3-2.6c-1-1.8-1.5-4.1-1.5-6.9c0-2.4,0.4-4.3,1.2-5.5C60.5,8.6,61.7,8,63.2,8 c2.3,0,4.1,1.5,5.4,4.5h2c-0.6-1.5-1-3.3-1.2-5.2c-0.5,0.1-1,0.2-1.5,0.2c-0.6,0-1.4-0.1-2.2-0.4c-0.9-0.2-1.7-0.4-2.5-0.4 c-2.7,0-4.9,0.9-6.6,2.7c-1.7,1.8-2.5,4.1-2.5,7c0,3,0.8,5.4,2.5,7.2c1.7,1.8,4,2.7,6.8,2.7c0.9,0,2-0.2,3.2-0.5s2.3-0.5,3.3-0.5 c0.7,0,1.3,0,1.9,0.1v-1.1c-0.7-0.2-1.1-1.2-1.1-3v-0.2c0-1,0.1-1.7,0.2-2.2c0.1-0.5,0.5-0.8,1-0.8l0.6-0.1v-1 C69.9,17,67.2,17,64.5,16.9z M87.1,22.5V15c0-1.7-0.4-2.9-1.2-3.5c-0.8-0.6-2-1-3.6-1c-2.1,0-3.8,0.4-5.2,1.2 c-1.4,0.8-2.1,1.7-2.1,2.9c0,0.5,0.1,0.9,0.4,1.2s0.7,0.4,1.3,0.4c0.2,0,0.4,0,0.6-0.1c0.2-0.1,0.3-0.1,0.5-0.2 c0.1-0.1,0.2-0.2,0.4-0.3c0.1-0.2,0.2-0.3,0.2-0.4s0.1-0.3,0.2-0.5s0.1-0.4,0.1-0.5c0-0.1,0.1-0.3,0.1-0.5s0.1-0.4,0.1-0.5 c0.1-0.5,0.3-0.9,0.7-1.2c0.4-0.3,0.9-0.5,1.5-0.5c0.8,0,1.3,0.2,1.6,0.7c0.3,0.5,0.4,1.4,0.4,2.7v1.6c-3.4,0.7-5.7,1.5-7,2.4 c-1.3,0.9-1.9,2-1.9,3.4c0,1.3,0.4,2.3,1.3,2.9c0.8,0.6,1.8,1,3,1c1.3,0,2.4-0.4,3.3-1.1c0.7-0.6,1.1-1.1,1.4-1.6h0.2l-0.1,2 c0.1,0.4,0.4,0.6,0.7,0.8c1.8-0.4,3.4-0.6,5.1-0.7v-1.1C87.8,24.4,87.1,23.7,87.1,22.5z M83.1,21.9c-0.3,0.6-0.6,1.1-1.1,1.7 c-0.5,0.5-1.1,0.8-1.8,0.8c-0.6,0-1-0.2-1.4-0.7c-0.4-0.4-0.5-1-0.5-1.8c0-0.7,0.2-1.5,0.7-2.3c0.6-1,2-1.7,4.1-2.3V21.9z M96.4,23.7v-8.2c0-2.1,0.1-3.5,0.2-4.3c-0.2-0.4-0.4-0.6-0.8-0.8c-1.4,0.9-3.2,1.5-5.2,1.9v1c0.6-0.1,1.1,0,1.4,0.2 c0.3,0.2,0.4,0.6,0.4,1.2v9c0,0.6-0.6,1-1.8,1.1v1c2.6-0.1,5.2-0.1,7.8,0v-1C97,24.7,96.4,24.3,96.4,23.7z M94.3,8.6 c0.6,0,1.1-0.2,1.5-0.6c0.4-0.4,0.6-0.9,0.6-1.5c0-0.6-0.2-1.1-0.6-1.5s-0.9-0.6-1.5-0.6c-0.6,0-1.1,0.2-1.5,0.6 c-0.4,0.4-0.6,0.9-0.6,1.5c0,0.6,0.2,1.1,0.6,1.5C93.2,8.4,93.7,8.6,94.3,8.6z M115,23.7v-8c0-1.9-0.4-3.3-1.3-4.1 c-0.8-0.8-1.9-1.2-3.1-1.2c-1,0-1.9,0.2-2.7,0.7c-0.8,0.4-1.4,0.9-1.8,1.4c-0.4,0.5-0.7,0.9-0.9,1.4h-0.2l0.5-2.7 c-0.2-0.4-0.4-0.6-0.8-0.8c-1.4,0.8-3.1,1.5-5.1,1.9v1c1.2-0.2,1.8,0.2,1.8,1.3v9c0,0.6-0.6,1-1.9,1.1v1c2.6-0.1,5.2-0.1,7.8,0 v-1c-1.3-0.1-1.9-0.5-1.9-1.1v-8.5c0.2-0.6,0.5-1.3,1.1-1.9c0.6-0.6,1.3-1,2.1-1c1.5,0,2.2,1.2,2.2,3.4v8c0,0.6-0.6,1-1.9,1.1v1 c2.6-0.1,5.2-0.1,7.8,0v-1C115.7,24.7,115,24.3,115,23.7z"></path> </g> </g></g><g id="Gainlove_copy_1_" class="st0"> <g id="Gainlove_copy_2_"> <g> <path class="st2" d="M123.7,23.7v-14c0-2.1,0.1-3.5,0.2-4.3c-0.2-0.4-0.4-0.6-0.8-0.8c-1.4,0.9-3.2,1.5-5.2,1.9v1 c0.6-0.1,1.1,0,1.4,0.2c0.3,0.2,0.4,0.6,0.4,1.2v14.8c0,0.6-0.6,1-1.8,1.1v1c2.6-0.1,5.2-0.1,7.8,0v-1 C124.3,24.7,123.7,24.3,123.7,23.7z M134.2,10.5c-1.8,0-3.4,0.6-4.9,1.9c-0.7,0.6-1.3,1.5-1.7,2.5c-0.4,1-0.7,2.2-0.7,3.4 c0,2.4,0.8,4.3,2.3,5.8c1.5,1.4,3.2,2.1,5,2.1c1.8,0,3.4-0.6,4.9-1.9c0.7-0.6,1.3-1.5,1.7-2.5c0.4-1,0.6-2.2,0.6-3.4 c0-2.4-0.8-4.3-2.3-5.7C137.7,11.2,136,10.5,134.2,10.5z M136.6,23.6c-0.4,1-1.1,1.4-1.9,1.4c-1,0-1.9-0.7-2.5-2.2 c-0.6-1.5-1-3.4-1-5.7c0-1.7,0.2-3.1,0.7-4c0.4-0.9,1.1-1.4,1.9-1.4c1.1,0,1.9,0.7,2.5,2.2c0.6,1.5,1,3.4,1,5.7 C137.2,21.3,137,22.6,136.6,23.6z M151.3,11.9l1,0.1c0.6,0,1.1,0.2,1.4,0.6c0.3,0.3,0.3,0.8,0.2,1.4l-2.6,8.5l-2.8-8.5 c-0.4-1.2-0.2-1.9,0.6-2l0.6-0.1v-1.1h-7.7v1.1l0.6,0.1c0.6,0,1,0.2,1.2,0.5c0.2,0.3,0.5,0.7,0.7,1.5l4.2,12h2.7l3.7-12 c0.4-1.2,1.2-1.9,2.4-2l0.6-0.1v-1.1h-6.7V11.9z M166.5,25c-1.4,0-2.5-0.6-3.2-1.8c-0.7-1.2-1-2.7-1-4.5h7.4 c0.6,0,1.1-0.2,1.3-0.5c0.3-0.3,0.4-0.9,0.4-1.6c0-1.7-0.6-3.1-1.8-4.3c-1.2-1.2-2.7-1.7-4.5-1.7c-1.9,0-3.6,0.7-5.1,2.1 c-1.4,1.4-2.1,3.3-2.1,5.7c0,2.4,0.7,4.3,2.2,5.7c1.5,1.4,3.2,2.1,5.4,2.1c2.7,0,4.5-1.2,5.5-3.4H170 C169.3,24.2,168.2,25,166.5,25z M163.1,13.2c0.5-1,1.2-1.6,2.1-1.6c0.9,0,1.5,0.5,1.9,1.5c0.4,1,0.6,2.5,0.6,4.4h-5.4 C162.4,15.7,162.6,14.3,163.1,13.2z"></path> </g> </g></g><g id="Global_aid_network_xA0__1_" class="st0"> <g id="Global_aid_network_xA0_"> <g> <path class="st1" d="M59.2,32.7c-0.4-0.2-0.9-0.3-1.5-0.3c-0.6,0-1.1,0.1-1.5,0.3c-0.4,0.2-0.8,0.6-1,1c-0.2,0.4-0.4,0.9-0.4,1.5 v3.1c0,0.5,0.1,1,0.4,1.4c0.2,0.4,0.6,0.7,1,1c0.4,0.2,1,0.3,1.5,0.3c0.9,0,1.6-0.2,2.1-0.7c0.5-0.5,0.8-1.2,0.8-2.1v-1.5 c0-0.1,0-0.1-0.1-0.1h-2.7c-0.1,0-0.1,0-0.1,0.1v0.7c0,0.1,0,0.1,0.1,0.1h1.6c0,0,0,0,0,0v0.9c0,0.5-0.2,0.9-0.5,1.1 c-0.3,0.3-0.7,0.4-1.3,0.4c-0.5,0-1-0.2-1.3-0.5s-0.5-0.7-0.5-1.2v-3.1c0-0.5,0.2-0.9,0.5-1.2c0.3-0.3,0.8-0.5,1.3-0.5 c0.5,0,1,0.2,1.3,0.5c0.3,0.3,0.5,0.7,0.5,1.2v0.1c0,0.1,0,0.1,0.1,0.1h0.9c0.1,0,0.1,0,0.1-0.1v-0.1c0-0.5-0.1-0.9-0.4-1.3 C60,33.2,59.6,32.9,59.2,32.7z M64.4,32.4h-0.9c-0.1,0-0.1,0-0.1,0.1v8.2c0,0.1,0,0.1,0.1,0.1h0.9c0.1,0,0.1,0,0.1-0.1v-8.2 C64.5,32.5,64.5,32.4,64.4,32.4z M71.4,35.1c-0.4-0.3-0.9-0.5-1.5-0.5c-0.6,0-1.1,0.2-1.6,0.5c-0.4,0.3-0.7,0.7-0.9,1.2 c-0.1,0.4-0.2,0.9-0.2,1.4c0,0.5,0.1,1,0.2,1.5c0.2,0.5,0.5,1,0.9,1.3c0.4,0.3,1,0.5,1.5,0.5c0.6,0,1.1-0.2,1.5-0.5 s0.7-0.7,0.9-1.3c0.1-0.4,0.2-0.9,0.2-1.5c0-0.6-0.1-1-0.2-1.4C72.2,35.8,71.9,35.4,71.4,35.1z M71.3,38.9 c-0.1,0.3-0.3,0.6-0.5,0.8c-0.2,0.2-0.5,0.3-0.8,0.3c-0.3,0-0.6-0.1-0.9-0.3c-0.2-0.2-0.4-0.4-0.5-0.8c-0.1-0.3-0.1-0.7-0.1-1.1 c0-0.5,0-0.8,0.1-1.1c0.1-0.3,0.3-0.6,0.5-0.8c0.2-0.2,0.5-0.3,0.9-0.3c0.3,0,0.6,0.1,0.9,0.3c0.2,0.2,0.4,0.4,0.5,0.8 c0.1,0.3,0.1,0.7,0.1,1.1C71.4,38.2,71.4,38.6,71.3,38.9z M79.4,35.1c-0.4-0.3-0.9-0.4-1.5-0.4c-0.3,0-0.5,0.1-0.8,0.2 c-0.2,0.1-0.5,0.3-0.6,0.5c0,0,0,0,0,0c0,0,0,0,0,0v-2.7c0-0.1,0-0.1-0.1-0.1h-0.9c-0.1,0-0.1,0-0.1,0.1v8.2c0,0.1,0,0.1,0.1,0.1 h0.9c0.1,0,0.1,0,0.1-0.1v-0.4c0,0,0,0,0,0c0,0,0,0,0,0c0.2,0.2,0.4,0.4,0.6,0.5c0.2,0.1,0.5,0.2,0.8,0.2c0.6,0,1.1-0.1,1.4-0.4 c0.4-0.3,0.7-0.7,0.8-1.2c0.2-0.4,0.2-0.9,0.2-1.5c0-0.6-0.1-1-0.2-1.5C80,35.8,79.8,35.4,79.4,35.1z M78.9,39.3 c-0.2,0.4-0.6,0.7-1.1,0.7c-0.5,0-0.8-0.2-1.1-0.6c-0.2-0.4-0.3-0.9-0.3-1.5c0-0.7,0.1-1.2,0.3-1.5c0.2-0.4,0.6-0.6,1-0.6 c0.5,0,0.8,0.2,1.1,0.6c0.3,0.4,0.4,0.9,0.4,1.6C79.2,38.4,79.1,38.9,78.9,39.3z M86.6,34.9c-0.4-0.2-0.8-0.3-1.3-0.3 c-0.7,0-1.2,0.2-1.7,0.5c-0.4,0.3-0.7,0.7-0.8,1.2c0,0,0,0.1,0.1,0.1l1,0.1c0.1,0,0.1,0,0.1-0.1c0-0.2,0.2-0.4,0.4-0.5 c0.2-0.1,0.5-0.2,0.8-0.2c0.4,0,0.7,0.1,0.9,0.3c0.2,0.2,0.3,0.5,0.3,0.8v0.3c0,0,0,0,0,0h-1.3c-0.8,0-1.4,0.2-1.8,0.5 c-0.4,0.4-0.7,0.8-0.7,1.5c0,0.6,0.2,1.1,0.6,1.4c0.4,0.3,0.9,0.5,1.5,0.5c0.4,0,0.7-0.1,1-0.2c0.3-0.1,0.6-0.3,0.8-0.5 c0,0,0.1,0,0.1,0v0.4c0,0.1,0,0.1,0.1,0.1h0.9c0.1,0,0.1,0,0.1-0.1v-4.1c0-0.4-0.1-0.7-0.3-1C87.3,35.3,87,35.1,86.6,34.9z M86.6,38.8c0,0.3-0.2,0.6-0.5,0.9c-0.3,0.2-0.7,0.3-1.1,0.3c-0.3,0-0.6-0.1-0.8-0.2c-0.2-0.2-0.3-0.4-0.3-0.7 c0-0.3,0.1-0.6,0.4-0.8c0.3-0.2,0.7-0.3,1.1-0.3h1.1c0,0,0,0,0,0V38.8z M91.5,32.4h-0.9c-0.1,0-0.1,0-0.1,0.1v8.2 c0,0.1,0,0.1,0.1,0.1h0.9c0.1,0,0.1,0,0.1-0.1v-8.2C91.7,32.5,91.6,32.4,91.5,32.4z M101.6,34.9c-0.4-0.2-0.8-0.3-1.3-0.3 c-0.7,0-1.2,0.2-1.7,0.5c-0.4,0.3-0.7,0.7-0.8,1.2c0,0,0,0.1,0.1,0.1l1,0.1c0.1,0,0.1,0,0.1-0.1c0-0.2,0.2-0.4,0.4-0.5 c0.2-0.1,0.5-0.2,0.8-0.2c0.4,0,0.7,0.1,0.9,0.3c0.2,0.2,0.3,0.5,0.3,0.8v0.3c0,0,0,0,0,0h-1.3c-0.8,0-1.4,0.2-1.8,0.5 c-0.4,0.4-0.7,0.8-0.7,1.5c0,0.6,0.2,1.1,0.6,1.4c0.4,0.3,0.9,0.5,1.5,0.5c0.4,0,0.7-0.1,1-0.2c0.3-0.1,0.6-0.3,0.8-0.5 c0,0,0.1,0,0.1,0v0.4c0,0.1,0,0.1,0.1,0.1h0.9c0.1,0,0.1,0,0.1-0.1v-4.1c0-0.4-0.1-0.7-0.3-1C102.3,35.3,102,35.1,101.6,34.9z M101.6,38.8c0,0.3-0.2,0.6-0.5,0.9c-0.3,0.2-0.7,0.3-1.1,0.3c-0.3,0-0.6-0.1-0.8-0.2c-0.2-0.2-0.3-0.4-0.3-0.7 c0-0.3,0.1-0.6,0.4-0.8c0.3-0.2,0.7-0.3,1.1-0.3h1.1c0,0,0,0,0,0V38.8z M106.7,34.7h-0.9c-0.1,0-0.1,0-0.1,0.1v5.9 c0,0.1,0,0.1,0.1,0.1h0.9c0.1,0,0.1,0,0.1-0.1v-5.9C106.8,34.8,106.7,34.7,106.7,34.7z M106.2,32.2c-0.2,0-0.4,0.1-0.6,0.2 c-0.1,0.1-0.2,0.3-0.2,0.6c0,0.2,0.1,0.4,0.2,0.6c0.1,0.1,0.3,0.2,0.6,0.2c0.2,0,0.4-0.1,0.6-0.2c0.1-0.1,0.2-0.3,0.2-0.6 c0-0.2-0.1-0.4-0.2-0.6C106.6,32.3,106.5,32.2,106.2,32.2z M114.6,32.4h-0.9c-0.1,0-0.1,0-0.1,0.1v2.7c0,0,0,0,0,0c0,0,0,0,0,0 c-0.2-0.2-0.4-0.4-0.6-0.5c-0.2-0.1-0.5-0.2-0.8-0.2c-0.6,0-1.1,0.1-1.5,0.4c-0.4,0.3-0.7,0.7-0.8,1.2c-0.1,0.4-0.2,0.9-0.2,1.5 c0,0.6,0.1,1.1,0.2,1.5c0.2,0.5,0.5,0.9,0.8,1.2c0.4,0.3,0.9,0.4,1.4,0.4c0.3,0,0.5-0.1,0.8-0.2s0.4-0.3,0.6-0.5c0,0,0,0,0,0 c0,0,0,0,0,0v0.4c0,0.1,0,0.1,0.1,0.1h0.9c0.1,0,0.1,0,0.1-0.1v-8.2C114.7,32.5,114.7,32.4,114.6,32.4z M113.3,39.3 c-0.2,0.4-0.6,0.6-1.1,0.6c-0.5,0-0.9-0.2-1.1-0.7c-0.2-0.4-0.3-0.9-0.3-1.5c0-0.7,0.1-1.2,0.4-1.6c0.2-0.4,0.6-0.6,1.1-0.6 c0.4,0,0.8,0.2,1,0.6c0.2,0.4,0.3,0.9,0.3,1.5S113.5,38.9,113.3,39.3z M124,34.6c-0.7,0-1.2,0.2-1.5,0.7c0,0,0,0,0,0c0,0,0,0,0,0 v-0.4c0-0.1,0-0.1-0.1-0.1h-0.9c-0.1,0-0.1,0-0.1,0.1v5.9c0,0.1,0,0.1,0.1,0.1h0.9c0.1,0,0.1,0,0.1-0.1V37c0-0.4,0.1-0.7,0.4-1 c0.2-0.2,0.5-0.4,0.9-0.4c0.4,0,0.7,0.1,0.9,0.4c0.2,0.2,0.3,0.6,0.3,1v3.7c0,0.1,0,0.1,0.1,0.1h0.9c0.1,0,0.1,0,0.1-0.1v-4 c0-0.6-0.2-1.2-0.6-1.5C125.1,34.8,124.6,34.6,124,34.6z M133.1,35.2c-0.4-0.4-1-0.6-1.8-0.6c-0.6,0-1.1,0.2-1.6,0.5 c-0.4,0.3-0.7,0.8-0.9,1.3c-0.1,0.3-0.1,0.7-0.1,1.3c0,0.7,0.1,1.2,0.3,1.7c0.2,0.5,0.5,0.8,0.9,1.1c0.4,0.3,0.9,0.4,1.5,0.4 c0.5,0,1-0.1,1.4-0.3c0.4-0.2,0.7-0.5,1-0.9c0-0.1,0-0.1,0-0.2l-0.7-0.5c-0.1-0.1-0.1,0-0.2,0c-0.3,0.5-0.8,0.7-1.4,0.7 c-0.4,0-0.7-0.1-1-0.3c-0.3-0.2-0.4-0.4-0.5-0.8c0-0.1-0.1-0.4-0.1-0.6c0,0,0,0,0,0h3.8c0.1,0,0.1,0,0.1-0.1c0-0.4,0-0.8,0-1.1 C133.7,36.2,133.5,35.6,133.1,35.2z M132.6,37.3h-2.7c0,0,0,0,0,0c0-0.3,0.1-0.5,0.1-0.7c0.1-0.3,0.2-0.5,0.5-0.7 c0.2-0.2,0.5-0.3,0.9-0.3c0.4,0,0.6,0.1,0.9,0.3c0.2,0.2,0.4,0.4,0.5,0.8C132.7,36.8,132.7,37,132.6,37.3 C132.7,37.3,132.7,37.3,132.6,37.3z M139.3,34.7H138c0,0,0,0,0,0v-1.4c0-0.1,0-0.1-0.1-0.1H137c-0.1,0-0.1,0-0.1,0.1v1.4 c0,0,0,0,0,0h-0.7c-0.1,0-0.1,0-0.1,0.1v0.7c0,0.1,0,0.1,0.1,0.1h0.7c0,0,0,0,0,0v3.6c0,0.6,0.2,1,0.5,1.2 c0.3,0.2,0.8,0.3,1.4,0.3c0.1,0,0.3,0,0.6,0c0.1,0,0.1,0,0.1-0.1V40c0-0.1,0-0.1-0.1-0.1h-0.3c-0.3,0-0.6-0.1-0.7-0.2 c-0.2-0.1-0.2-0.4-0.2-0.7v-3.2c0,0,0,0,0,0h1.3c0.1,0,0.1,0,0.1-0.1v-0.7C139.4,34.8,139.4,34.7,139.3,34.7z M149.7,34.7l-0.9,0 c-0.1,0-0.1,0-0.1,0.1l-1.2,4.3c0,0,0,0,0,0c0,0,0,0,0,0l-1.2-4.3c0-0.1-0.1-0.1-0.1-0.1h-0.8c-0.1,0-0.1,0-0.1,0.1l-1.2,4.4 c0,0,0,0,0,0s0,0,0,0l-1.1-4.4c0-0.1-0.1-0.1-0.1-0.1h-0.9c-0.1,0-0.1,0-0.1,0.1l0,0l1.7,5.9c0,0.1,0.1,0.1,0.1,0.1h0.9 c0.1,0,0.1,0,0.1-0.1l1.1-4c0,0,0,0,0,0c0,0,0,0,0,0l1.2,4.1c0,0.1,0.1,0.1,0.1,0.1h0.9c0.1,0,0.1,0,0.1-0.1l1.7-5.9 C149.8,34.8,149.8,34.8,149.7,34.7C149.7,34.7,149.7,34.7,149.7,34.7z M155.9,35.1c-0.4-0.3-0.9-0.5-1.5-0.5 c-0.6,0-1.1,0.2-1.6,0.5c-0.4,0.3-0.7,0.7-0.9,1.2c-0.1,0.4-0.2,0.9-0.2,1.4c0,0.5,0.1,1,0.2,1.5c0.2,0.5,0.5,1,0.9,1.3 c0.4,0.3,1,0.5,1.5,0.5c0.6,0,1.1-0.2,1.5-0.5s0.7-0.7,0.9-1.3c0.1-0.4,0.2-0.9,0.2-1.5c0-0.6-0.1-1-0.2-1.4 C156.6,35.8,156.3,35.4,155.9,35.1z M155.7,38.9c-0.1,0.3-0.3,0.6-0.5,0.8c-0.2,0.2-0.5,0.3-0.8,0.3c-0.3,0-0.6-0.1-0.9-0.3 c-0.2-0.2-0.4-0.4-0.5-0.8c-0.1-0.3-0.1-0.7-0.1-1.1c0-0.5,0-0.8,0.1-1.1c0.1-0.3,0.3-0.6,0.5-0.8c0.2-0.2,0.5-0.3,0.9-0.3 c0.3,0,0.6,0.1,0.9,0.3c0.2,0.2,0.4,0.4,0.5,0.8c0.1,0.3,0.1,0.7,0.1,1.1C155.9,38.2,155.8,38.6,155.7,38.9z M162.4,34.7 c-0.6,0-1.1,0.3-1.5,0.8c0,0,0,0,0,0c0,0,0,0,0,0v-0.6c0-0.1,0-0.1-0.1-0.1h-0.9c-0.1,0-0.1,0-0.1,0.1v5.9c0,0.1,0,0.1,0.1,0.1 h0.9c0.1,0,0.1,0,0.1-0.1v-3.5c0-0.4,0.1-0.7,0.4-1c0.2-0.2,0.6-0.4,0.9-0.4l0.2,0c0.2,0,0.3,0,0.5,0.1c0.1,0,0.1,0,0.1-0.1 l0.2-0.9c0-0.1,0-0.1-0.1-0.1C162.9,34.7,162.7,34.7,162.4,34.7z M170.4,40.7l-1.8-4c0,0,0,0,0-0.1l1.5-1.8c0,0,0-0.1,0-0.1 c0,0,0,0-0.1,0H169c-0.1,0-0.1,0-0.1,0.1l-2.2,2.4c0,0,0,0,0,0c0,0,0,0,0,0v-4.6c0-0.1,0-0.1-0.1-0.1h-0.9c-0.1,0-0.1,0-0.1,0.1 v8.2c0,0.1,0,0.1,0.1,0.1h0.9c0.1,0,0.1,0,0.1-0.1v-1.9c0,0,0,0,0-0.1l1.1-1.2c0,0,0,0,0.1,0l1.4,3.3c0,0.1,0.1,0.1,0.1,0.1h1 C170.4,40.8,170.4,40.8,170.4,40.7L170.4,40.7z"></path> </g> </g></g><g id="Vector_Smart_Object_xA0_Image_1_"> <g> <g> <path class="st3" d="M12.6,26.8c0,0-5,2.6-4.4,1.6c1.2-2.2,4.3-5.8,1.4-11.9c-0.4-0.9,2.5,0.5,4.2,2c0,0,0.1-3.2-6.2-6.5 c-0.9-0.5-2.4,0.5-1.3,2.1C7.4,15.9,9,20,8.3,22.3c-0.6,2-2.4,4.7-4.1,7.1c-0.6,0.9,0.4,2.2,1.9,1.8 C6.2,31.2,10.6,30.3,12.6,26.8z"></path> <path class="st3" d="M5.4,18.5c1.7,1,2.3,3.1,1.3,4.8c-1,1.7-3.1,2.3-4.8,1.3c-1.7-1-2.3-3.1-1.3-4.8C1.5,18.1,3.7,17.5,5.4,18.5 z"></path> </g> <g> <path class="st4" d="M22.1,35.7c0,0-0.2,5.6-0.8,4.7c-1.3-2.2-2.9-6.7-9.6-7.1c-1-0.1,1.7-1.9,3.9-2.6c0,0-2.7-1.7-8.8,2.1 c-0.8,0.5-0.7,2.4,1.2,2.2c2.1-0.2,6.4,0.5,8,2.2c1.4,1.5,2.8,4.4,4.1,7.1c0.5,1,2.2,0.7,2.5-0.8C22.8,43.4,24.1,39.2,22.1,35.7z "></path> <path class="st4" d="M11.3,37.8c1.7-1,3.9-0.4,4.8,1.3c1,1.7,0.4,3.9-1.3,4.8c-1.7,1-3.9,0.4-4.8-1.3C9,41,9.6,38.8,11.3,37.8z"></path> </g> <g> <path class="st5" d="M34.6,31.9c0,0,4.8,3,3.6,3c-2.6,0-7.2-0.8-11,4.7c-0.5,0.8-0.8-2.4-0.3-4.7c0,0-2.8,1.5-2.6,8.7 c0,1,1.7,1.8,2.5,0.1c0.9-1.9,3.6-5.3,6-5.8c2-0.5,5.2-0.2,8.2,0c1.1,0.1,1.7-1.5,0.6-2.6C41.6,35.2,38.6,31.9,34.6,31.9z"></path> <path class="st5" d="M31,42.3c0-2,1.6-3.5,3.5-3.5c2,0,3.5,1.6,3.5,3.5c0,2-1.6,3.5-3.5,3.5C32.6,45.9,31,44.3,31,42.3z"></path> </g> <g> <path class="st6" d="M37.6,19.2c0,0,5-2.6,4.4-1.6c-1.2,2.2-4.3,5.8-1.4,11.9c0.4,0.9-2.5-0.5-4.2-2c0,0-0.1,3.2,6.2,6.5 c0.9,0.5,2.4-0.5,1.3-2.1c-1.2-1.7-2.7-5.8-2.1-8.1c0.6-2,2.4-4.7,4.1-7.1c0.6-0.9-0.4-2.2-1.9-1.8 C43.9,14.8,39.6,15.7,37.6,19.2z"></path> <path class="st6" d="M44.8,27.5c-1.7-1-2.3-3.1-1.3-4.8c1-1.7,3.1-2.3,4.8-1.3c1.7,1,2.3,3.1,1.3,4.8 C48.7,27.9,46.5,28.5,44.8,27.5z"></path> </g> <g> <path class="st7" d="M28.1,10.3c0,0,0.2-5.6,0.8-4.7c1.3,2.2,2.9,6.7,9.6,7.1c1,0.1-1.7,1.9-3.9,2.6c0,0,2.7,1.7,8.8-2.1 c0.8-0.5,0.7-2.4-1.2-2.2c-2.1,0.2-6.4-0.5-8-2.2c-1.4-1.5-2.8-4.4-4.1-7.1c-0.5-1-2.2-0.7-2.5,0.8C27.4,2.6,26,6.8,28.1,10.3z"></path> <path class="st7" d="M38.9,8.2c-1.7,1-3.9,0.4-4.8-1.3c-1-1.7-0.4-3.9,1.3-4.8c1.7-1,3.9-0.4,4.8,1.3C41.1,5,40.5,7.2,38.9,8.2z"></path> </g> <g> <path class="st8" d="M15.6,14.1c0,0-4.8-3-3.6-3c2.6,0,7.2,0.8,11-4.7c0.5-0.8,0.8,2.4,0.3,4.7c0,0,2.8-1.5,2.6-8.7 c0-1-1.7-1.8-2.5-0.1c-0.9,1.9-3.6,5.3-6,5.8c-2,0.5-5.2,0.2-8.2,0C8,8.1,7.4,9.7,8.5,10.8C8.5,10.8,11.6,14.1,15.6,14.1z"></path> <path class="st8" d="M19.1,3.7c0,2-1.6,3.5-3.5,3.5c-2,0-3.5-1.6-3.5-3.5c0-2,1.6-3.5,3.5-3.5C17.6,0.1,19.1,1.7,19.1,3.7z"></path> </g> </g></g></svg>